<?xml version="1.0" standalone="no"?>
<!DOCTYPE svg PUBLIC "-//W3C//DTD SVG 20010904//EN"
 "http://www.w3.org/TR/2001/REC-SVG-20010904/DTD/svg10.dtd">
<svg version="1.0" xmlns="http://www.w3.org/2000/svg"
 width="1080.000000pt" height="1080.000000pt" viewBox="0 0 1080.000000 1080.000000"
 preserveAspectRatio="xMidYMid meet">
<metadata>
Created by potrace 1.15, written by Peter Selinger 2001-2017
</metadata>
<g transform="translate(0.000000,1080.000000) scale(0.100000,-0.100000)"
fill="#000000" stroke="none">
<path d="M0 5400 l0 -5400 5400 0 5400 0 0 5400 0 5400 -5400 0 -5400 0 0
-5400z m3030 5281 c128 -5 1040 -7 2260 -4 3672 10 3880 7 4280 -74 195 -39
293 -74 437 -159 105 -61 243 -190 310 -289 135 -200 228 -457 268 -745 8 -63
20 -142 25 -175 12 -75 36 -429 50 -720 5 -121 15 -312 21 -424 16 -312 17
-2707 1 -3246 -13 -423 -11 -652 13 -1220 19 -468 13 -1007 -15 -1345 -15
-182 -29 -358 -40 -495 -13 -154 -56 -497 -76 -600 -21 -111 -66 -298 -74
-310 -3 -5 -12 -30 -19 -54 -30 -103 -125 -258 -211 -341 -145 -142 -272 -212
-516 -289 -280 -87 -610 -136 -1089 -161 -230 -12 -2427 -17 -2495 -6 -64 11
-2793 18 -3333 9 -1179 -20 -1768 69 -2126 321 -368 260 -490 670 -567 1906
-25 414 -37 3172 -15 3590 30 558 33 740 19 1265 -21 847 -14 1675 17 1920 2
17 7 62 10 100 37 424 142 773 295 976 251 335 691 518 1365 569 77 6 160 12
185 14 75 6 790 -3 1020 -13z"/>
<path d="M4293 9807 c-16 -18 -43 -50 -59 -72 -133 -184 -414 -523 -554 -670
-153 -160 -190 -204 -184 -220 3 -8 10 -15 14 -15 10 0 284 288 377 395 80 94
252 321 342 453 48 70 68 91 80 86 33 -13 119 -33 191 -43 234 -33 1105 -50
1688 -32 846 25 797 25 815 6 41 -41 5 -142 -113 -314 -59 -87 -209 -258 -266
-305 -31 -25 -108 -43 -209 -48 -84 -5 -51 -23 41 -23 l85 0 -25 -20 c-47 -38
-134 -86 -203 -114 -44 -18 -69 -34 -72 -46 -3 -15 2 -17 30 -12 54 10 208 92
289 154 68 51 84 59 175 79 140 32 384 66 421 59 67 -12 98 -79 113 -243 6
-59 13 -393 16 -742 6 -635 8 -699 25 -862 10 -97 23 -131 48 -126 14 3 17 13
15 53 -1 28 -7 300 -12 605 -11 621 -23 891 -46 1059 -27 188 -71 272 -152
287 -41 8 -193 -9 -338 -37 -55 -10 -106 -19 -113 -19 -8 0 19 35 58 78 130
140 259 346 280 448 13 61 -3 114 -42 136 -25 14 -882 18 -1963 8 -534 -5
-585 -3 -692 31 -28 9 -31 13 -23 29 17 32 -6 31 -37 -3z"/>
<path d="M5615 8973 c-436 -17 -657 -43 -1160 -133 -429 -77 -492 -85 -759
-100 -192 -11 -243 -20 -231 -41 4 -5 11 -7 16 -3 6 3 137 10 292 14 286 9
439 23 842 80 477 67 1255 139 1255 117 0 -28 70 -326 110 -467 82 -294 122
-537 124 -767 0 -78 -2 -144 -5 -147 -6 -6 -118 60 -286 167 -41 26 -78 46
-80 43 -15 -14 16 -43 114 -105 60 -38 139 -90 177 -116 l68 -47 -6 -43 c-9
-59 -49 -178 -61 -181 -5 -2 -41 36 -80 83 -110 135 -336 366 -348 354 -6 -6
33 -58 112 -149 67 -77 158 -186 202 -243 73 -92 80 -106 74 -135 -6 -36 8
-52 30 -34 11 10 18 5 35 -22 11 -18 20 -42 20 -53 0 -11 3 -30 6 -42 5 -17 1
-25 -17 -33 -21 -9 -35 -5 -101 33 -43 24 -83 49 -90 54 -7 6 -29 13 -48 17
-19 3 -57 10 -83 16 -26 5 -87 14 -135 20 -48 6 -106 20 -131 31 -52 23 -51
23 -51 6 0 -24 71 -48 211 -73 187 -32 230 -53 346 -167 52 -50 102 -105 110
-121 12 -24 15 -95 15 -455 0 -410 -7 -528 -37 -676 -14 -69 62 -90 84 -23 36
113 43 475 16 836 -9 123 -15 225 -13 228 8 7 104 -186 147 -293 65 -164 83
-248 89 -418 6 -204 -20 -394 -89 -633 -148 -512 -399 -831 -758 -962 -152
-56 -210 -65 -406 -65 -191 0 -221 4 -385 57 -224 72 -375 179 -506 358 -96
131 -181 314 -230 494 -29 111 -30 132 -4 139 26 7 25 27 -1 130 -19 70 -21
98 -15 196 l6 115 79 150 c93 178 114 216 121 216 3 0 5 -129 5 -288 0 -293
11 -415 50 -567 9 -32 13 -60 11 -62 -3 -3 -30 5 -62 16 -36 14 -61 18 -67 12
-12 -12 3 -19 143 -71 153 -56 260 -79 405 -86 146 -8 217 7 351 70 130 62
354 212 354 238 0 30 -43 11 -165 -71 -146 -98 -236 -147 -336 -182 -54 -19
-84 -23 -189 -22 -122 1 -160 6 -287 40 -57 14 -63 19 -63 42 0 14 -11 70 -25
126 -42 170 -56 310 -62 623 l-6 292 64 106 c35 59 104 152 153 208 190 214
275 356 303 508 17 95 104 289 166 372 40 55 44 66 24 66 -19 0 -65 -60 -122
-157 -46 -80 -65 -100 -65 -68 0 43 -23 115 -37 115 -12 0 -14 -6 -8 -27 9
-36 25 -134 25 -153 0 -30 -139 -251 -356 -564 -120 -175 -129 -186 -139 -186
-12 0 5 224 21 286 17 65 17 64 4 64 -26 0 -49 -113 -66 -318 -6 -79 -8 -83
-45 -116 -52 -48 -62 -68 -44 -93 13 -19 9 -30 -49 -132 -35 -61 -67 -115 -71
-119 -11 -11 5 204 22 293 8 44 28 119 44 166 16 48 29 90 29 94 0 3 -10 5
-22 3 -27 -4 -54 -71 -98 -242 -15 -60 -29 -103 -31 -97 -8 24 10 252 24 303
8 29 17 67 21 85 14 82 86 246 219 505 18 35 129 148 146 148 4 0 21 -20 39
-45 31 -44 62 -59 62 -30 0 8 -14 34 -31 57 -28 40 -29 43 -12 56 10 7 44 22
75 34 32 11 58 25 58 29 0 16 -39 10 -101 -15 l-60 -25 -10 27 c-61 161 -52
454 22 722 61 218 230 447 314 426 32 -8 41 10 14 25 -70 37 -205 -91 -303
-288 -43 -86 -71 -172 -96 -293 -48 -235 -49 -402 -4 -556 13 -48 23 -88 22
-89 -2 -1 -24 -16 -50 -34 -112 -75 -345 -336 -508 -569 -36 -51 -66 -88 -68
-83 -5 16 57 311 89 421 62 212 148 421 205 497 46 60 23 74 -26 16 -61 -75
-165 -299 -244 -530 -42 -123 -123 -429 -162 -608 -15 -71 -82 -261 -89 -253
-2 2 -6 41 -10 87 -3 47 -8 88 -11 93 -17 27 -24 -21 -24 -160 0 -136 -4 -178
-31 -312 -39 -194 -47 -394 -16 -428 18 -19 18 -43 8 -569 -16 -760 -35 -986
-128 -1483 -105 -565 -249 -966 -477 -1330 -37 -59 -66 -116 -66 -131 0 -51
63 -84 112 -58 52 28 259 396 347 617 82 205 185 576 230 829 65 360 111 867
111 1221 0 62 4 111 9 108 4 -3 11 -58 14 -123 3 -68 11 -132 19 -150 15 -35
13 -68 -17 -393 -39 -405 -113 -956 -160 -1182 -59 -284 -159 -595 -261 -807
-35 -74 -64 -144 -64 -156 0 -51 72 -73 111 -34 38 38 154 306 222 514 73 220
125 452 177 775 37 238 100 771 100 856 0 21 3 35 6 32 18 -18 53 -472 63
-813 l8 -270 -33 -125 c-48 -186 -129 -392 -250 -631 -49 -99 -56 -147 -24
-179 22 -22 70 -26 102 -9 43 23 206 408 282 664 52 178 92 404 98 548 0 26 4
47 7 47 3 0 16 -28 28 -62 12 -35 31 -85 43 -111 32 -73 86 -88 112 -32 10 21
6 36 -25 102 -49 106 -82 196 -117 321 l-30 105 1 561 c1 309 4 649 8 756 l6
195 24 -65 c111 -304 339 -569 585 -680 90 -41 244 -88 343 -105 95 -17 273
-22 365 -10 l56 7 -8 -39 c-17 -75 -30 -333 -37 -733 -6 -404 -3 -485 20 -477
9 3 14 133 19 518 5 452 15 661 34 721 3 10 17 21 32 24 60 13 210 68 281 104
288 145 535 459 660 840 28 88 80 295 95 383 8 44 22 48 30 10 11 -53 35 -330
47 -533 16 -281 5 -587 -36 -1044 -19 -210 -39 -464 -46 -565 -14 -224 -7
-554 14 -629 24 -87 63 -112 116 -76 26 19 26 26 0 234 -19 161 -4 465 55
1075 28 288 39 546 33 780 -10 386 -65 803 -147 1126 -24 92 -71 351 -65 357
6 7 184 -569 230 -749 14 -51 16 -140 18 -538 1 -262 -2 -687 -7 -946 -9 -499
-4 -622 34 -834 17 -89 20 -154 20 -401 1 -597 42 -906 151 -1123 30 -60 58
-87 90 -87 66 0 75 56 25 157 -89 180 -126 404 -126 757 l0 141 56 -115 c60
-124 76 -147 113 -161 35 -14 88 7 106 41 8 15 22 77 31 136 l17 109 32 -96
c18 -53 40 -107 49 -121 24 -37 63 -42 94 -11 28 28 29 27 -28 183 -23 63 -55
170 -71 237 l-30 122 16 112 c29 210 45 423 45 603 0 105 4 176 9 171 5 -6 16
-41 25 -80 10 -38 35 -128 57 -200 91 -292 108 -325 172 -325 73 0 96 71 56
172 -59 147 -172 498 -269 833 -58 199 -62 221 -81 420 -35 381 -80 631 -158
891 -65 214 -149 396 -369 796 -44 78 -105 190 -137 248 -108 197 -217 371
-228 367 -18 -7 -14 -16 82 -191 49 -88 121 -226 161 -306 64 -126 73 -154 78
-212 2 -38 1 -68 -4 -68 -5 0 -22 23 -37 51 -77 136 -347 522 -526 749 -41 52
-78 100 -83 107 -6 7 0 33 15 71 14 32 30 83 38 113 7 30 15 57 19 62 7 9 179
-128 327 -260 340 -306 592 -586 758 -842 115 -178 214 -418 254 -618 26 -126
29 -387 6 -537 -8 -55 -15 -109 -15 -122 0 -52 67 -73 95 -30 27 41 48 243 42
411 -13 427 -215 888 -556 1275 -129 145 -142 159 -286 290 -192 175 -348 304
-490 406 l-119 86 -2 166 c-2 251 -44 506 -129 779 -28 88 -125 467 -125 487
0 2 98 7 218 11 223 8 263 14 241 41 -9 12 -66 14 -343 12 -182 -1 -362 -3
-401 -5z m-1569 -2030 c-58 -117 -128 -294 -183 -466 -19 -60 -37 -106 -39
-104 -2 2 1 43 7 92 16 132 63 306 96 356 68 106 159 229 170 229 1 0 -21 -48
-51 -107z m-230 -339 c-22 -84 -43 -229 -56 -374 -15 -177 -31 -303 -39 -318
-6 -11 -20 276 -24 493 0 19 23 74 63 147 35 65 66 116 68 114 2 -2 -4 -30
-12 -62z m100 -479 c-12 -255 -22 -325 -47 -325 -12 0 1 322 17 430 13 94 32
175 39 168 2 -1 -3 -124 -9 -273z m2876 121 c27 -53 42 -105 58 -191 11 -65
19 -119 17 -122 -2 -2 -12 18 -22 44 -10 27 -33 80 -52 119 -18 40 -35 85 -38
100 -11 73 -14 124 -7 124 4 0 24 -33 44 -74z m-3136 -533 c-9 -279 -19 -533
-23 -563 l-6 -55 -9 40 c-26 109 20 1120 49 1091 3 -3 -2 -233 -11 -513z
m3314 123 c22 -57 55 -160 74 -228 35 -123 90 -400 84 -420 -3 -9 -199 686
-213 757 -10 50 11 7 55 -109z m165 -1137 c51 -201 57 -240 65 -384 11 -183
11 -681 1 -770 -9 -77 -11 -66 -51 210 -17 116 -36 228 -41 250 -6 22 -14 200
-19 395 -5 195 -12 396 -15 445 -4 50 -4 87 -1 84 3 -3 31 -106 61 -230z
m-203 -1062 c39 -50 49 -57 81 -57 18 0 38 5 45 12 17 17 18 10 47 -247 31
-282 31 -289 0 -461 -38 -210 -33 -197 -62 -139 -39 76 -99 232 -131 341 -27
93 -30 113 -36 342 l-6 243 22 -6 c13 -4 31 -16 40 -28z"/>
<path d="M5550 6311 c0 -5 22 -17 49 -26 62 -20 135 -67 157 -100 24 -37 13
-96 -30 -161 -41 -61 -138 -138 -194 -154 -89 -24 -191 -1 -217 51 -30 57 -7
230 40 301 29 44 30 48 10 48 -43 0 -103 -198 -91 -302 7 -61 27 -91 78 -114
106 -47 240 -12 343 91 105 105 131 211 68 277 -47 51 -213 120 -213 89z"/>
<path d="M4756 6291 c-4 -6 -1 -13 6 -15 7 -2 32 -9 54 -15 56 -15 94 -46 94
-78 0 -40 -57 -146 -103 -191 -91 -88 -180 -111 -297 -76 -120 35 -151 116
-85 214 41 61 41 89 1 45 -122 -131 -66 -262 125 -296 78 -14 136 -3 205 37
113 66 211 246 169 310 -28 43 -153 91 -169 65z"/>
<path d="M5380 3720 c0 -14 77 -56 145 -79 55 -18 163 -39 288 -56 38 -5 47
-3 47 9 0 17 -8 20 -130 37 -99 14 -235 51 -290 79 -43 22 -60 25 -60 10z"/>
<path d="M5125 3631 c-131 -46 -445 -198 -550 -267 -24 -16 -33 -38 -17 -47 4
-3 41 15 82 40 101 59 362 188 484 238 87 35 116 55 89 61 -4 2 -44 -10 -88
-25z"/>
<path d="M5150 3109 c0 -20 88 -153 155 -234 141 -169 468 -486 722 -698 179
-149 443 -338 468 -335 34 5 30 43 -7 70 -326 240 -492 374 -797 643 -232 204
-404 387 -486 517 -28 45 -55 63 -55 37z"/>
<path d="M4992 2834 c-172 -269 -357 -528 -561 -784 -87 -109 -102 -138 -73
-148 16 -5 56 39 185 201 173 218 260 348 478 717 79 134 87 150 69 150 -6 0
-50 -61 -98 -136z"/>
</g>
</svg>
